osimModel_states
nRows=24
nColumns=17

# SIMM Motion File Header:
name osimModel_states
datacolumns 17
datarows 24
otherdata 1
range 0.48852597 0.58594294
endheader
time	blockToGround_xRotation	blockToGround_yRotation	blockToGround_zRotation	blockToGround_xTranslation	blockToGround_yTranslation	blockToGround_zTranslation	blockToGround_xRotation_u	blockToGround_yRotation_u	blockToGround_zRotation_u	blockToGround_xTranslation_u	blockToGround_yTranslation_u	blockToGround_zTranslation_u	muscle1.activation	muscle1.fiber_length	muscle2.activation	muscle2.fiber_length
      0.48852597	      0.14776844	      0.00049820	     -0.00334606	      0.00000045	      0.00011842	      0.12198090	     -0.90806378	      0.00208971	      0.01737383	     -0.00001533	     -0.00186274	      0.02652737	      0.00000005	      0.22055386	      0.87732770	     -0.02406644
      0.49306944	      0.14340361	      0.00050841	     -0.00326125	      0.00000037	      0.00010943	      0.12209752	     -1.02047203	      0.00230335	      0.01997188	     -0.00001755	     -0.00210964	      0.02516033	      0.00000004	      0.22048696	      0.87371901	     -0.02418266
      0.49761291	      0.13857502	      0.00051956	     -0.00316447	      0.00000029	      0.00009942	      0.12220783	     -1.08914501	      0.00249533	      0.02265660	     -0.00001989	     -0.00226543	      0.02286673	      0.00000004	      0.22088352	      0.86934893	     -0.02428876
      0.50147036	      0.13423552	      0.00052962	     -0.00307290	      0.00000021	      0.00009037	      0.12229485	     -1.16311147	      0.00259820	      0.02479852	     -0.00002187	     -0.00242805	      0.02239805	      0.00000004	      0.22071489	      0.86510779	     -0.02437351
      0.50532780	      0.12969033	      0.00054000	     -0.00297337	      0.00000012	      0.00008087	      0.12237899	     -1.18698453	      0.00265327	      0.02677366	     -0.00002375	     -0.00248525	      0.02116310	      0.00000003	      0.22089870	      0.86024920	     -0.02445244
      0.51021548	      0.12384769	      0.00055322	     -0.00283743	     -0.00000000	      0.00006862	      0.12247990	     -1.20935409	      0.00260685	      0.02874100	     -0.00002582	     -0.00253913	      0.02042591	      0.00000003	      0.22088443	      0.85327045	     -0.02454665
      0.51450309	      0.11870796	      0.00056439	     -0.00271154	     -0.00000012	      0.00005782	      0.12256544	     -1.17344311	      0.00246803	      0.02990286	     -0.00002723	     -0.00246847	      0.01920452	      0.00000003	      0.22114208	      0.84630143	     -0.02462350
      0.51879069	      0.11373894	      0.00057474	     -0.00258212	     -0.00000023	      0.00004736	      0.12264684	     -1.15476753	      0.00221906	      0.03034058	     -0.00002811	     -0.00243260	      0.01902791	      0.00000002	      0.22104471	      0.83859732	     -0.02469679
      0.52307829	      0.10892715	      0.00058383	     -0.00245227	     -0.00000036	      0.00003722	      0.12272680	     -1.07434048	      0.00189107	      0.03013781	     -0.00002844	     -0.00226554	      0.01796318	      0.00000002	      0.22130727	      0.83005167	     -0.02476544
      0.52736589	      0.10444213	      0.00059133	     -0.00232484	     -0.00000048	      0.00002775	      0.12280324	     -1.03409641	      0.00148535	      0.02917586	     -0.00002816	     -0.00218257	      0.01797550	      0.00000002	      0.22119224	      0.82075040	     -0.02483136
      0.53165350	      0.10018682	      0.00059697	     -0.00220278	     -0.00000060	      0.00001877	      0.12287890	     -0.93453788	      0.00104057	      0.02769591	     -0.00002731	     -0.00197345	      0.01696347	      0.00000002	      0.22146703	      0.81058685	     -0.02489315
      0.53594110	      0.09629931	      0.00060064	     -0.00208820	     -0.00000071	      0.00001056	      0.12295128	     -0.90238159	      0.00057791	      0.02565387	     -0.00002597	     -0.00190701	      0.01710871	      0.00000002	      0.22132925	      0.79966365	     -0.02495268
      0.54022870	      0.09259276	      0.00060232	     -0.00198297	     -0.00000082	      0.00000272	      0.12302328	     -0.80791752	      0.00012986	      0.02343001	     -0.00002423	     -0.00170792	      0.01606646	      0.00000001	      0.22162360	      0.78786799	     -0.02500825
      0.54402043	      0.08956920	      0.00060225	     -0.00189818	     -0.00000091	     -0.00000367	      0.12308425	     -0.79780141	     -0.00023139	      0.02127668	     -0.00002249	     -0.00168806	      0.01619909	      0.00000001	      0.22150398	      0.77680755	     -0.02505566
      0.54781216	      0.08662446	      0.00060088	     -0.00182140	     -0.00000099	     -0.00000990	      0.12314469	     -0.75373887	     -0.00054817	      0.01924439	     -0.00002063	     -0.00159586	      0.01561491	      0.00000001	      0.22163714	      0.76507840	     -0.02510021
      0.55260351	      0.08305672	      0.00059758	     -0.00173495	     -0.00000108	     -0.00001746	      0.12321844	     -0.75511310	     -0.00086361	      0.01688212	     -0.00001832	     -0.00160130	      0.01536637	      0.00000001	      0.22162999	      0.74937936	     -0.02515352
      0.55690781	      0.07981961	      0.00059351	     -0.00166600	     -0.00000116	     -0.00002433	      0.12328338	     -0.73603201	     -0.00105820	      0.01526068	     -0.00001639	     -0.00156292	      0.01457275	      0.00000001	      0.22181756	      0.73439600	     -0.02519768
      0.56121211	      0.07658149	      0.00058878	     -0.00160297	     -0.00000122	     -0.00003121	      0.12334551	     -0.79366732	     -0.00116620	      0.01408528	     -0.00001477	     -0.00168892	      0.01453418	      0.00000001	      0.22173940	      0.71864617	     -0.02523915
      0.56551640	      0.07311913	      0.00058375	     -0.00154357	     -0.00000128	     -0.00003859	      0.12340673	     -0.79393515	     -0.00119359	      0.01365388	     -0.00001349	     -0.00169216	      0.01359248	      0.00000001	      0.22196345	      0.70205625	     -0.02527667
      0.56929153	      0.06999765	      0.00057935	     -0.00149205	     -0.00000133	     -0.00004525	      0.12345784	     -0.87160759	     -0.00116599	      0.01370220	     -0.00001273	     -0.00186122	      0.01357957	      0.00000001	      0.22187896	      0.68689134	     -0.02530730
      0.57306666	      0.06663700	      0.00057513	     -0.00143932	     -0.00000138	     -0.00005243	      0.12350808	     -0.90522909	     -0.00109597	      0.01431752	     -0.00001230	     -0.00193584	      0.01297831	      0.00000001	      0.22198726	      0.67109227	     -0.02533484
      0.57779645	      0.06218249	      0.00057030	     -0.00136864	     -0.00000144	     -0.00006196	      0.12356827	     -0.99689541	     -0.00097615	      0.01565388	     -0.00001220	     -0.00213596	      0.01263760	      0.00000001	      0.22198447	      0.65046737	     -0.02536570
      0.58252624	      0.05729562	      0.00056610	     -0.00129012	     -0.00000150	     -0.00007244	      0.12362666	     -1.03441172	     -0.00082801	      0.01768474	     -0.00001257	     -0.00221975	      0.01166795	      0.00000000	      0.22218457	      0.62887265	     -0.02539165
      0.58594294	      0.05360115	      0.00056350	     -0.00122688	     -0.00000154	     -0.00008038	      0.12366649	     -1.13077547	     -0.00073113	      0.01936830	     -0.00001303	     -0.00242946	      0.01166045	      0.00000000	      0.22210281	      0.61272179	     -0.02540789
